{"asset":{"version":"2.0","generator":"Unity 2022.3.19f1 glTFast 6.2.0"},"nodes":[{"name":"brigid_ar_50k_4k","mesh":0,"translation":[0.00932996,1.72905755,10.79],"rotation":[-0.287030965,0.00170500018,-0.005690065,0.957902968]}],"buffers":[{"uri":"brigid_ar_50k_4k.bin","byteLength":1847776}],"bufferViews":[{"buffer":0,"byteLength":600000},{"buffer":0,"byteLength":935832,"byteOffset":600000,"byteStride":24},{"buffer":0,"byteLength":311944,"byteOffset":1535832,"byteStride":8}],"accessors":[{"bufferView":1,"componentType":5126,"count":38993,"type":"VEC3","max":[3.216491,9.52292252,-4.0848074],"min":[-3.36581683,1.092588,-14.8963442]},{"bufferView":1,"componentType":5126,"count":38993,"type":"VEC3","byteOffset":12},{"bufferView":2,"componentType":5126,"count":38993,"type":"VEC2"},{"bufferView":0,"componentType":5125,"count":150000,"type":"SCALAR"}],"materials":[{"pbrMetallicRoughness":{"metallicFactor":0}}],"meshes":[{"primitives":[{"attributes":{"POSITION":0,"NORMAL":1,"TEXCOORD_0":2},"indices":3,"material":0}]}],"scene":0,"scenes":[{"name":"brigid_ar_50k_4k","nodes":[0]}]}